<?xml version="1.0" encoding="utf-8"?>
<!-- Generator: Adobe Illustrator 16.0.0, SVG Export Plug-In . SVG Version: 6.00 Build 0)  -->
<!DOCTYPE svg PUBLIC "-//W3C//DTD SVG 1.1//EN" "http://www.w3.org/Graphics/SVG/1.1/DTD/svg11.dtd">
<svg version="1.1" id="Layer_1" xmlns="http://www.w3.org/2000/svg" xmlns:xlink="http://www.w3.org/1999/xlink" x="0px" y="0px"
	 width="49px" height="60px" viewBox="0 0 445.833 639.583" enable-background="new 0 0 445.833 639.583"
	 xml:space="preserve">
<g>
	<path fill="#FFFFFF" stroke="#000000" stroke-width="5" d="M229.543,442.097c57.489-0.101,104.12-46.73,104.014-104.262
		c0.106-57.509-46.524-104.139-104.014-104.262c-57.551,0.123-104.181,46.752-104.261,104.262
		C125.362,395.367,171.993,441.997,229.543,442.097L229.543,442.097z"/>
	<path fill="#FFFFFF" stroke="#000000" stroke-width="3" d="M194.376,278.878"/>
	<path d="M285.482,346.896c-5.7-4.911-56.46-34.021-60.323-38.478c-5.782-6.566-14.471-8.222-19.859-8.688
		c-6.905-0.48-36.399-1.602-69.507,5.461c-0.405-7.477-9.434-14.895-9.434-14.895c5.305-2.1,6.951-6.95,6.951-6.95l-1.242-14.15
		l1.986-4.965c3.402,0.383,16.36-2.02,18.37-5.461c3.237-5.741,4.478-16.498,5.71-16.384c3.544-0.114,8.487-8.7,1.737-12.164
		c-1.729-0.776,4.976-28.555,5.461-32.768c0.671-5.038,7.705-9.795,10.178-11.916c2.492-2.017,2.734-4.996,1.242-5.958
		c-0.612-0.3,2.285-3.506-0.497-5.213c-0.186-0.12,2.471-3.361-0.993-5.213c0.258-1.355,1.303-3.923-1.737-4.22
		c-4.004-0.445-9.176-0.445-13.157,1.241c-1.748,0.726-0.88,2.348-1.241,2.979c0.376-0.665-6.155,1.748-5.213,10.922
		c0.562,4.059-0.322,12.753-1.49,15.888c-0.632,1.367-12.278,34.102-12.66,34.753c-5.618,0.383-7.272,2.866-6.951,7.696
		c-1.893-1.616-3.656-4.184-5.709-3.476c0.812-1.122-5.038-7.395-6.206-7.943c-0.733-3.002-9.093-18.235-13.157-25.32
		c-2.842-4.657-0.739-12.522,1.242-14.398c3.236-3.341,1.433-3.577,6.702-8.192c5.636-5.078,0.361-8.078-0.248-8.936
		c-0.425-1.003-4.717-6.455-4.717-6.455c1.39-2.812,1.809-3.754,0.993-4.468c-1.05-0.919-7.458-3.216-10.674-3.724
		c-2.168-0.391-2.577-2.493-3.724-4.468c-1.128-1.748-8.162-5.679-9.185-5.461c-0.322-2.182-0.529-2.907-4.22-3.227
		c-3.755-0.507-10.115-1.38-17.873,3.972c-8.638,5.968-12.155,14.45-13.405,19.611c-1.232,5.182,3.112,15.111,7.695,19.362
		c4.519,4.024,4.519,8.782,10.674,8.937c-1.397,4.603-2.979,9.681-2.979,9.681s-15.934,13.724-16.881,15.888
		c-1.811,4.271-3.083,8.816-2.234,13.405c-1.263,3.273-3.227,16.384-3.227,16.384c-3.591,1.79-10.426,5.709-10.426,5.709
		s-5.577,20.491-5.958,21.846c2.45-1.148,7.943-2.482,7.943-2.482c0.092,5.265-4.459,26.987-1.241,31.774
		c2.988,4.729,17.262,23.14,22.094,22.59c4.684-0.692,23.334-5.957,23.334-5.957c-0.032,4.644,1.83,13.126,6.206,17.624
		c0.859,0.954,2.813,3.969,6.5,7.214c0.737,0.648,1.544,1.307,2.421,1.96c7.546,5.721,16.855,9.858,25.88,11.612
		c0.83,0.111,1.708,0.217,2.629,0.315c20.272,2.178,61.608,1.443,68.32-0.001c-0.072,9.155,7.375,14.947,11.916,18.37
		c0.179,0.01,32.941,27.347,32.768,26.313c0.755,3.363,2.731,11.171,2.731,11.171l5.957-21.101
		c-2.969-3.257-27.392-45.041-27.803-46.173c-3.713-11.698-9.188-15.092-28.548-18.37c4.562-1.188,12.836-0.36,14.15-0.744
		c9.03,13.209,23.924,11.968,35.001,13.652c5.43,0.761,31.123,9.9,32.768,10.427C273.99,355.637,285.482,346.896,285.482,346.896
		L285.482,346.896z"/>
	<path d="M116.181,401.758c3.281,0.008,5.966-2.677,5.958-5.959c0.002-0.835-0.164-1.63-0.465-2.351
		c-0.302-0.721-0.74-1.368-1.28-1.909c-1.813-0.787-3.881-2.856-6.984-1.821c-3.103,2.068-5.172,7.24-1.488,10.294
		c0.541,0.54,1.188,0.979,1.908,1.28C114.55,401.593,115.345,401.76,116.181,401.758L116.181,401.758z"/>
	<path d="M116.181,395.799"/>
	<path d="M168.063,164.439l5.461,0.496c6.96-26.51,32.354-123.995,35.995-143.731h-6.206
		C199.672,46.318,173.037,148.769,168.063,164.439L168.063,164.439z"/>
	<path d="M135.792,606.805h274.803V70.603c-5.037,3.279-36.491,37.981-36.491,37.981l-26.562,6.703l-4.966,11.667
		c0,0-8.181,4.851-8.192,11.419c0.012,6.672-18.121,6.703-18.121,6.703s-6.691,13.208-6.703,18.122
		c0.012,5.017,0.012,21.566-3.227,28.299c-3.382,6.506-14.895,31.279-14.895,31.279s6.548,8.326,4.965,13.405
		c-1.728,4.851-8.348,6.506-11.668,11.419c-3.299,5.017-6.701,23.335-6.701,23.335l1.737,18.122v16.632l-3.228,28.05l-4.965,29.789
		l-14.895,16.633l-18.37,16.384c0,0-9.836,1.708-8.191,13.405c1.665,11.471,4.976,6.508,0,13.157
		c-4.955,6.589-14.884,34.724-16.632,41.455c-1.562,6.507-6.526,19.747-8.192,29.79c-1.645,9.816-6.609,32.985-13.157,34.753
		c-6.692,1.543-14.968-0.113-18.37,6.455c-3.218,6.673-6.454,19.859-6.454,19.859l-9.93,9.93l-11.667,18.37L135.792,606.805
		L135.792,606.805z"/>
	<path fill="#FFFFFF" d="M116.181,398.53c1.502,0.02,2.747-1.225,2.73-2.73c0.008-0.782-0.298-1.484-0.795-1.983
		c-2.639-2.029-3.673-0.995-4.707,2.108c0,1.034,1.034,1.034,0.789,1.811C114.694,398.233,115.397,398.54,116.181,398.53
		L116.181,398.53z"/>
	<path fill="#FFFFFF" d="M116.181,395.799"/>
	<g>
		<path d="M426.731,20.458v600H21.352v-600H426.731 M446.731,0.458h-20H21.352h-20v20v600v20h20h405.379h20v-20v-600V0.458
			L446.731,0.458z"/>
	</g>
	<path stroke="#000000" stroke-width="7" stroke-miterlimit="8" d="M98.928,346.276c0,0,0,0.262,0,0.767c0,0.506,0,1.255,0,2.234
		c-2.069,17.686-2.069,35.27-0.159,53.273c-0.045,0.997-0.083,1.988-0.118,2.977c-4.895,16.256-4.895,33.839,0.262,50.61
		c0.014,0.74,0.015,1.479,0.007,2.221c0.001,0.83-0.054,1.65-0.147,2.459c-0.878,7.511-5.016,14.751-3.981,23.025
		c1.379,6.896,4.137,12.872,5.212,19.072c0.134,0.775,0.243,1.555,0.32,2.338c0.674,9.62-2.429,16.861-5.532,25.136
		s9.309,15.515,8.578,25.755c0.039,0.753,0.023,1.516-0.052,2.294c-0.376,3.891-2.255,8.153-6.457,13.324
		c-1.034,2.069,0,6.206,2.069,8.47c0,1.044,0,2.059,0,3.044c0,12.805,0,20.552,0,20.552"/>
	
		<line stroke="#000000" stroke-width="4" stroke-linecap="round" stroke-linejoin="round" stroke-miterlimit="8" x1="98.928" y1="349.277" x2="114.443" y2="390.752"/>
</g>
</svg>
